PathFileType	4	(X/Y/Z)	Patient4_TMGait_0pt4_01_left_36.trc.trc
DataRate	CameraRate	NumFrames	NumMarkers	Units	OrigDataRate	OrigDataStartFrame	OrigNumFrames
73.684210526316	73.684210526316	4	33	mm	73.684210526316	53	       141
Frame#	Time	Sacral			L.Shoulder			Chest			R.Shoulder			Neck			R.ASIS			L.ASIS			R.Thigh.Superior			R.Thigh.Lateral			R.Thigh.Inferior			R.Patella			L.Thigh.Superior			L.Thigh.Lateral			L.Thigh.Inferior			L.Patella			L.Shank.Superior			L.Shank.Lateral			L.Shank.Inferior			R.Shank.Superior			R.Shank.Lateral			R.Shank.Inferior			R.Heel			R.Midfoot.Superior			R.Midfoot.Lateral			R.Toe			L.Heel			L.Midfoot.Lateral			L.Midfoot.Superior			L.Toe			L.Elbow			L.Wrist			R.Elbow			R.Wrist			
		X1	Y1	Z1	X2	Y2	Z2	X3	Y3	Z3	X4	Y4	Z4	X5	Y5	Z5	X6	Y6	Z6	X7	Y7	Z7	X8	Y8	Z8	X9	Y9	Z9	X10	Y10	Z10	X11	Y11	Z11	X12	Y12	Z12	X13	Y13	Z13	X14	Y14	Z14	X15	Y15	Z15	X16	Y16	Z16	X17	Y17	Z17	X18	Y18	Z18	X19	Y19	Z19	X20	Y20	Z20	X21	Y21	Z21	X22	Y22	Z22	X23	Y23	Z23	X24	Y24	Z24	X25	Y25	Z25	X26	Y26	Z26	X27	Y27	Z27	X28	Y28	Z28	X29	Y29	Z29	X30	Y30	Z30	X31	Y31	Z31	X32	Y32	Z32	X33	Y33	Z33	

53	45.545714285714	815.142659941374	1011.217713134007	447.400755920406	1000.365274262260	1435.085275330258	253.386347142407	1102.969419024857	1369.243211541791	415.692091824072	1020.325220698650	1445.541603231465	589.125772710480	985.364019913595	1500.249062028300	408.965515020888	1047.886074802528	949.473365849760	557.973399812300	1025.858353039745	965.395787812836	284.902315044669	1124.537370491534	772.720814008108	526.082538987864	1082.637609384910	653.130649816134	602.487059610451	1167.162599450014	609.410000830648	520.049817852762	1181.614835947384	496.479052837713	543.866627734890	1072.280935633956	752.012023158774	309.200775959835	976.917308047324	637.507355671275	258.302665253428	1062.496876566993	559.383221379372	317.170867286449	1061.033163319329	491.356341579474	328.605947338360	1035.992535403829	419.617780325742	322.854587235272	945.494316602294	303.556951484502	279.222656659197	1000.624125624472	194.019694097084	349.581985007220	1102.781836141733	424.931898652472	555.286198194688	982.759684912107	391.388828630257	622.345987575556	961.171608772374	282.620173385073	575.592397770772	758.197131215671	232.545061908526	558.896248489367	923.950593618057	161.406852204701	591.344843339674	815.178128099408	166.149228379307	628.125631062666	980.933044188030	41.980930700218	610.767145237306	876.448096012310	38.722040782630	403.454738894595	944.260907755090	35.623567933520	317.285039861493	1029.487777737974	96.578264731065	337.811944515513	1156.082248584122	41.891655844802	300.500198740878	989.409461840813	1093.687348409233	109.017395335589	1163.972090151395	900.069508886994	81.266362204886	924.948900868485	1115.455330855285	717.249315830204	935.707553983578	855.053359628930	731.075362891968	
54	45.559285714286	814.143020686492	1011.638916136718	445.689310764933	1001.962364565743	1435.251331603113	252.410773111888	1102.473370815757	1369.694802551591	416.113068577455	1017.739451247092	1446.537891353442	588.275399242664	985.199051218577	1500.708717296705	407.906762441363	1045.947090602567	950.730970575484	558.442706262798	1026.078220599726	965.647509252023	285.267747182875	1125.283043233707	776.582534940957	526.208162753738	1086.049144487694	656.386139621830	602.837107831902	1171.245182990270	614.156756578915	520.347416898369	1188.217934614818	501.611023432137	544.398913328205	1070.756604993659	751.335356268195	310.420860841438	974.589307993510	637.682014251429	258.422050391189	1058.783900652192	558.816940775542	318.090052124221	1056.527339600320	490.961976042480	329.572520112107	1031.472231768904	419.436272083479	323.459993713077	940.926266088108	303.594645026807	279.400181514423	995.500230090001	193.912151489191	349.887893373170	1110.866047654510	428.386033047907	555.734299724972	991.422581038034	391.894954052364	622.279255893858	972.714816148970	282.543569124127	575.604229878265	771.086371027672	227.350899409231	558.191508810817	938.474351171810	160.586207857055	591.522753798953	829.504470619541	162.576027812260	627.822548544608	998.178500818191	42.645836703183	611.066185840826	870.900151724005	38.701429210092	403.418243528670	938.772688456904	35.627535792377	317.263398551390	1024.000338645113	96.555701713919	337.874701726237	1150.594563191583	41.902401706223	300.499619431315	993.722992913117	1094.247946184568	107.371176344875	1172.258627269058	904.264986641143	80.184627718793	915.600641942082	1119.047110286161	716.520754143983	923.034753092289	858.632546217072	731.400422799429	
55	45.572857142857	813.147833973125	1012.033199844796	444.066212409970	1003.598720093249	1435.390068839659	251.595834537677	1101.998764493593	1370.093675193696	416.651235177345	1015.202907301976	1447.454008768525	587.530500712541	985.059096520358	1501.122233451298	406.995912049003	1043.936958623020	951.960574273334	559.086489756098	1026.341188257353	965.862298478554	285.777683468730	1125.649432416381	780.168711410849	526.723246621196	1088.754383060819	659.433920813352	603.495070981216	1174.581525048896	618.566487980206	521.066497649223	1193.930548253462	506.650877604828	545.381414581770	1069.128487736682	750.649369623465	311.943470391264	972.196410284409	637.870999225746	258.592565515030	1054.924514218549	558.253780962582	319.100820823101	1051.842807156773	490.577403193659	330.589684382584	1026.808573627824	419.272049561368	324.094560545505	936.259231261305	303.624465245316	279.602145999668	990.318919010449	193.814667832604	350.213395119569	1118.471118243121	431.576549593079	556.579054169802	999.951357571138	391.408447010863	622.606379571545	984.824418357700	281.456510167741	575.968998933889	785.018351553183	219.949625244027	557.799764620893	954.330202915356	158.651847332023	592.066237872945	845.219543915771	157.202392985945	627.851036395717	1017.471532656718	42.733346620052	611.775935119288	865.349055629179	38.671575587734	403.396407455671	933.281393174996	35.627916198129	317.250747795067	1018.509006368115	96.534549576779	337.945878068939	1145.104960528276	41.923043351598	300.509459223709	997.898209103422	1094.743246754849	106.054850499396	1180.301396646785	908.421297763245	79.631692162292	907.094404007297	1122.338103098640	715.598833463027	911.711924735757	861.920969632943	731.466275197955	
56	45.586428571429	812.148698275093	1012.380567070326	442.537552734121	1005.257678183909	1435.472854116238	250.950191583619	1101.562083170111	1370.401643935026	417.295892053549	1012.768392609935	1448.243581836305	586.905414887225	984.963372942444	1501.463522082034	406.237122415142	1041.877126336230	953.104454007886	559.882834514476	1026.669987681376	966.051125764089	286.396718273513	1125.634235537003	783.371893555483	527.595860181927	1090.706149174038	662.161895556995	604.435479796660	1177.114340121649	622.493887655997	522.174850223330	1198.647122156633	511.464033334889	546.758138794572	1067.394412589360	749.948323944639	313.683601594368	969.748548579022	638.056261514860	258.786293830957	1050.961035608011	557.688589206796	320.144479734346	1047.040338792115	490.195602326948	331.600072514591	1022.047210784396	419.110541271496	324.722143066132	931.520300198602	303.640564258865	279.806482963091	985.097798132879	193.719135770979	350.540605232486	1125.512850597127	434.431282060872	557.784872129484	1008.360016463337	389.932103902600	623.359270182803	997.467886679441	279.436948347803	576.725549056394	800.078892052003	210.560068390795	557.862486462708	971.478827750774	155.723786998561	593.002299864552	862.364151540753	150.226537447486	628.299252950913	1038.657703390378	42.326610007906	612.877808146702	859.801251325367	38.633321815173	403.387481855751	927.789153995881	35.622924326248	317.245416288428	1013.016710421331	96.515775122279	338.020309105227	1139.616195360406	41.951274481656	300.527822135955	1001.943816085019	1095.145834213750	105.050445583000	1188.095780791770	912.496126693315	79.599427479878	899.457704467756	1125.230285114061	714.522551818216	901.733418220763	864.810783664558	731.305997380993	
